<?xml version="1.0" encoding="UTF-8"?>
<svg id="Layer_1" xmlns="http://www.w3.org/2000/svg" xmlns:xlink="http://www.w3.org/1999/xlink" version="1.1" viewBox="0 0 104 71">
  <!-- Generator: Adobe Illustrator 29.5.1, SVG Export Plug-In . SVG Version: 2.1.0 Build 141)  -->
  <defs>
    <style>
      .st0, .st1 {
        fill: none;
      }

      .st1 {
        stroke: #e45550;
        stroke-linecap: round;
        stroke-linejoin: round;
        stroke-width: 2px;
      }

      .st2 {
        fill: #fac7c3;
      }

      .st3 {
        clip-path: url(#clippath);
      }
    </style>
    <clipPath id="clippath">
      <rect class="st0" x="28.2" y=".1" width="47.6" height="70.9"/>
    </clipPath>
  </defs>
  <g class="st3">
    <g>
      <path class="st2" d="M74.9,38.9h-20.5v21.7h20.5v-21.7Z"/>
      <path class="st2" d="M30.2,30.8c-.6,3.6-.8,7.4-.5,11,0,.5,0,.9.1,1.4h18.2c0-.5,0-.9.1-1.4.3-3.6.1-7.4-.5-11,0-.1,0-.3,0-.4h-17.4c0,.1,0,.3,0,.4Z"/>
      <path class="st1" d="M48.2,61.8c-.5-2.8-1-5.6-1-8.4,0-3.8.7-7.6,1-11.4.3-3.6.1-7.4-.5-11-.7-4.1-2.9-7.7-3.7-11.8-1.1-5.9-.6-10.4-.6-10.4h-8.9s.5,4.5-.6,10.4c-.8,4.1-3,7.7-3.7,11.8-.6,3.6-.8,7.4-.5,11,.3,3.8,1.1,7.6,1,11.4,0,2.8-.6,5.6-1,8.4-.3,1.9-1.4,5.4.6,6.8,2.1,1.5,7.3,1.5,8.6,1.4,1.4,0,6.5,0,8.6-1.4,2-1.4.9-4.9.6-6.8Z"/>
      <path class="st1" d="M43.6,4h-9.2v4.8h9.2v-4.8Z"/>
      <path class="st1" d="M42.6,1.1h-7.3c-.6,0-1.2.5-1.3,1.1l-.3,1.9h10.3l-.3-1.9c0-.6-.6-1.1-1.3-1.1Z"/>
      <path class="st1" d="M74.9,35.3h-20.5v29h20.5v-29Z"/>
      <path class="st1" d="M74.9,35.3h-20.5l2-3h16.6l2,3Z"/>
      <path class="st1" d="M54.4,64.3h20.5l-2,3h-16.6l-2-3Z"/>
      <path class="st1" d="M72.8,29.9h-16.4c-.5,0-1,.4-1,1v.4c0,.5.4,1,1,1h16.4c.5,0,1-.4,1-1v-.4c0-.5-.4-1-1-1Z"/>
    </g>
  </g>
</svg>