<svg width="88" height="51" viewBox="0 0 88 51" fill="none" xmlns="http://www.w3.org/2000/svg">
<g clip-path="url(#clip0_2956_22143)">
<path d="M46.1016 12.61L54.3516 4.35996C60.1916 -1.48004 69.7016 -1.45004 75.5816 4.42996L83.8816 12.73L46.1116 12.61H46.1016Z" fill="#F9C6C2"/>
<path d="M83.4414 17.0601H66.6914" stroke="#E5554F" stroke-width="2" stroke-linecap="round" stroke-linejoin="round"/>
<path d="M50.1089 26.0699H37.3789" stroke="#E5554F" stroke-width="2" stroke-linecap="round" stroke-linejoin="round"/>
<path d="M33.6187 26.0699H28.7188" stroke="#E5554F" stroke-width="2" stroke-linecap="round" stroke-linejoin="round"/>
<path d="M52.8708 32.77C55.8808 34.62 59.4008 35.7 63.1908 35.7H66.8808C77.8008 35.7 86.6408 26.85 86.6408 15.94V12.73H44.0508" stroke="#E5554F" stroke-width="2" stroke-linecap="round" stroke-linejoin="round"/>
<path d="M2.80859 20.89L13.6186 10.08C21.2786 2.41996 33.6986 2.41996 41.3586 10.08L52.1686 20.89H2.80859Z" fill="#F9C6C2"/>
<path d="M1.04 20.89H53.93C53.93 20.89 53.97 20.91 53.97 20.93V25.5C53.97 38.5 43.42 49.05 30.42 49.05H24.54C11.55 49.05 1 38.5 1 25.5V20.93C1 20.93 1.02 20.89 1.04 20.89Z" stroke="#E5554F" stroke-width="2" stroke-linecap="round" stroke-linejoin="round"/>
</g>
<defs>
<clipPath id="clip0_2956_22143">
<rect width="87.64" height="50.05" fill="white"/>
</clipPath>
</defs>
</svg>
