<svg width="47" height="50" viewBox="0 0 47 50" fill="none" xmlns="http://www.w3.org/2000/svg">
<g id="Group">
<g id="Group_2">
<path id="Vector" d="M46.6075 9.29131C46.5968 9.2627 46.5822 9.23789 46.5685 9.21094C46.5371 9.14883 46.4992 9.09238 46.4533 9.03994C46.433 9.0167 46.4142 8.99414 46.3914 8.97324C46.3344 8.921 46.2698 8.87852 46.1986 8.84326C46.1805 8.83428 46.1657 8.82119 46.1468 8.81348C46.1425 8.81172 46.1393 8.8084 46.135 8.80674L23.6351 0.0567625C23.4414 -0.0189209 23.2249 -0.0189209 23.0313 0.0567625L0.531346 8.80674C0.527049 8.8084 0.523827 8.81182 0.519628 8.81348C0.500878 8.8211 0.486132 8.83408 0.468065 8.84307C0.396776 8.87832 0.33203 8.9209 0.274902 8.97324C0.252148 8.99414 0.233495 9.0166 0.213085 9.03985C0.167187 9.09229 0.129296 9.14883 0.0977536 9.21104C0.0840818 9.23789 0.0697264 9.2626 0.0589842 9.29102C0.0240234 9.38359 0 9.48057 0 9.5834V40.4166C0 40.4209 0.00244131 40.4245 0.00253897 40.4288C0.00351553 40.4971 0.025 40.5606 0.0422851 40.6257C0.0529296 40.6658 0.0534179 40.7096 0.0697265 40.7472C0.0889647 40.7916 0.123925 40.8267 0.150683 40.8672C0.182714 40.9156 0.208105 40.9688 0.249316 41.0094C0.275097 41.0348 0.311132 41.0487 0.340331 41.0708C0.397948 41.1143 0.453612 41.1595 0.521483 41.187C0.525292 41.1886 0.527635 41.192 0.531542 41.1935L23.0315 49.9435C23.1284 49.9813 23.2309 50 23.3334 50C23.436 50 23.5385 49.9812 23.6354 49.9435L46.1353 41.1935C46.1391 41.192 46.1415 41.1886 46.1453 41.187C46.2133 41.1595 46.2692 41.1142 46.3268 41.0706C46.3559 41.0486 46.392 41.0347 46.4176 41.0094C46.4593 40.9684 46.4848 40.9149 46.5172 40.8659C46.5434 40.8258 46.578 40.7912 46.597 40.7473C46.6136 40.7092 46.614 40.6651 46.6248 40.6243C46.6418 40.5597 46.6632 40.4967 46.6642 40.4288C46.6642 40.4245 46.6667 40.4209 46.6667 40.4165V9.5835C46.6664 9.48067 46.6425 9.38369 46.6075 9.29131ZM23.3331 1.72746L43.5341 9.5835L34.5833 13.0643L14.3823 5.20841L23.3331 1.72746ZM22.4998 47.9486L1.6665 39.8466V10.8018L22.4997 18.9036V47.9486H22.4998ZM23.3331 17.4394L3.13222 9.5835L12.083 6.10265L32.284 13.9586L23.3331 17.4394ZM44.9998 39.8466L24.1665 47.9486V18.9036L44.9998 10.8018V39.8466Z" fill="#E5554F"/>
</g>
</g>
</svg>
