<?xml version="1.0" encoding="UTF-8"?>
<svg id="Layer_1" xmlns="http://www.w3.org/2000/svg" version="1.1" viewBox="0 0 104 71">
  <!-- Generator: Adobe Illustrator 29.5.1, SVG Export Plug-In . SVG Version: 2.1.0 Build 141)  -->
  <defs>
    <style>
      .st0 {
        fill: none;
        stroke: #e5554f;
        stroke-width: 1.5px;
      }
    </style>
  </defs>
  <path class="st0" d="M64.6,22.7c3.7-2.8,9.5-4.5,19.9-3.6,5,13.2-2.7,30.5-18.6,39.6l-.8.4c-14.1,7.7-29.5,6.2-37.9-2.1,10.2-.3,16.7-3,21.1-7.1,4-3.7,6.2-8.4,8-12.8l.7-1.9c2-5.1,3.8-9.4,7.6-12.4Z"/>
  <path class="st0" d="M40.7,10.6c14.4-7.3,30-6,38.9,1.5-10.1,0-16.6,2.5-21.1,6.2-4.3,3.5-6.6,8.1-8.5,12.4l-.8,1.8h0c-2.1,5-4,9.2-8,12.1-3.9,2.8-10,4.6-20.8,4-4.9-12.5,3-29,19.5-37.7l.8-.4Z"/>
</svg>