<?xml version="1.0" encoding="UTF-8"?>
<svg id="Layer_1" xmlns="http://www.w3.org/2000/svg" version="1.1" viewBox="0 0 104 97.3">
  <!-- Generator: Adobe Illustrator 29.5.1, SVG Export Plug-In . SVG Version: 2.1.0 Build 141)  -->
  <defs>
    <style>
      .st0 {
        fill: #f9c6c2;
      }

      .st1 {
        fill: none;
        stroke: #e5554f;
        stroke-linecap: round;
        stroke-linejoin: round;
      }
    </style>
  </defs>
  <path class="st1" d="M63.1,24.1c-6.8-10.2-11-16.7-11-16.7,0,0-4.6,6.8-11.5,17.1-7.5,11.1-17.4,24.9-17.4,36.6s13,28.8,28.8,28.8,28.8-13,28.8-28.8-10.2-25.5-17.8-36.9h.1Z"/>
  <path class="st0" d="M54.4,42.2c-7.1,8.8-4.5,12.8-1.3,17.3,3.1,4.6,6.7,9.7,0,19.4,6.9-.6,12.8-7.4,13.6-16.5.8-9.9-4.6-18.8-12.2-20.2Z"/>
  <path class="st0" d="M50.7,61.1c-3.1-4.5-6.7-9.6.2-19.1-6.8.7-12.6,7.5-13.3,16.5-.8,9.8,4.5,18.6,12.1,20.2,6.9-9.1,4.2-13,1-17.6h0Z"/>
</svg>