<?xml version="1.0" encoding="UTF-8"?>
<svg id="Layer_1" xmlns="http://www.w3.org/2000/svg" xmlns:xlink="http://www.w3.org/1999/xlink" version="1.1" viewBox="0 0 104 97.3">
  <!-- Generator: Adobe Illustrator 29.5.1, SVG Export Plug-In . SVG Version: 2.1.0 Build 141)  -->
  <defs>
    <style>
      .st0, .st1, .st2 {
        fill: none;
      }

      .st1 {
        stroke-width: .6px;
      }

      .st1, .st2 {
        stroke: #e5554f;
        stroke-linecap: round;
        stroke-linejoin: round;
      }

      .st2 {
        stroke-width: 1.1px;
      }

      .st3 {
        fill: #f9c6c2;
      }

      .st4 {
        clip-path: url(#clippath);
      }
    </style>
    <clipPath id="clippath">
      <rect class="st0" x="31" y="2.2" width="42" height="92.9"/>
    </clipPath>
  </defs>
  <g class="st4">
    <g>
      <path class="st3" d="M44.7,28.6c4.3-2.8,3.7-4.7,3.2-7.1-.7-2.5-1.4-5.1,2.9-8.2-2.9-.6-6.2,1.4-7.9,5-1.8,4-1,8.4,1.8,10.4h0Z"/>
      <path class="st3" d="M52.7,14.1c-4.3,2.6-3.9,4.6-3.2,6.9.6,2.4,1.4,5.3-2.9,8.4,3,.6,6.4-1.4,8-5,1.9-4,1-8.4-1.9-10.4Z"/>
      <path class="st3" d="M59.1,8.6c-1.4-1-3-2.2-2.1-5.7-1.5,1.1-2.4,3.5-1.8,5.8.7,2.8,2.9,4.8,5.1,4.8,1.1-3.2,0-3.9-1.2-5h0Z"/>
      <path class="st3" d="M64.2,7c-.7-2.8-2.9-4.8-5.1-4.8-1.2,3.2-.3,3.9,1.1,5,1.4,1,3,2.2,2.2,5.8,1.7-1.1,2.5-3.5,1.8-5.9Z"/>
      <path class="st2" d="M71.2,43.8v-8.6h-38.6v8.6c0,4.6,2.1,8.9,5.7,11.6l10.5,8.3h-16v6.2h38.4v-6.2h-16l10.5-8.3c3.6-2.8,5.7-7.1,5.7-11.6h-.1Z"/>
      <path class="st2" d="M54.4,79.2c-1.5-2.2-2.4-3.6-2.4-3.6,0,0-1,1.5-2.5,3.6-1.7,2.4-3.7,5.4-3.7,7.7s2.8,6.2,6.2,6.2,6.2-2.8,6.2-6.2-2.2-5.4-3.7-7.9h-.1Z"/>
      <path class="st1" d="M54.2,84.5s1,2.9,0,4.4"/>
    </g>
  </g>
</svg>