<?xml version="1.0" encoding="UTF-8"?>
<svg id="Layer_1" xmlns="http://www.w3.org/2000/svg" xmlns:xlink="http://www.w3.org/1999/xlink" version="1.1" viewBox="0 0 104 97.3">
  <!-- Generator: Adobe Illustrator 29.5.1, SVG Export Plug-In . SVG Version: 2.1.0 Build 141)  -->
  <defs>
    <style>
      .st0, .st1 {
        fill: none;
      }

      .st1 {
        stroke: #e5554f;
        stroke-linecap: round;
        stroke-linejoin: round;
        stroke-width: 1.1px;
      }

      .st2 {
        fill: #f9c6c2;
      }

      .st3 {
        clip-path: url(#clippath);
      }
    </style>
    <clipPath id="clippath">
      <rect class="st0" x="30.5" y="1.2" width="43" height="94.9"/>
    </clipPath>
  </defs>
  <g class="st3">
    <g>
      <path class="st2" d="M46.8,17.1c2.4.9,5.3,2.1,5.2,7.9,2.4-2.1,2.9-6.3.9-10-2.1-4.1-6.6-6.3-10-5.1-.5,5.3,1.3,6.1,3.9,7.1h0Z"/>
      <path class="st2" d="M46,18.9c-2.5-1.1-5.2-2.1-5.1-7.8-2.3,2.1-2.8,6.1-.8,9.9,2.1,4.1,6.4,6.1,9.9,5.1.4-5.3-1.6-6.1-4-7.2Z"/>
      <path class="st2" d="M57.6,11.8c3.1-1.7,2.8-2.9,2.4-4.7-.4-1.7-.8-3.7,2.1-5.9-2-.1-4.1,1.1-5.3,3.3-1.3,2.7-.9,5.6.8,7.2Z"/>
      <path class="st2" d="M64.3,2.1c-3.1,1.6-2.8,2.9-2.4,4.5.4,1.7.8,3.9-2.1,6,2,.3,4.1-1.1,5.3-3.3,1.3-2.7.9-5.7-.8-7.2h0Z"/>
      <path class="st1" d="M66.3,32.5h-28.6c0,4.8,2.4,9.2,6.1,11.8v4.3h16.2v-4.3c3.7-2.5,6.1-7,6.1-11.8h.1Z"/>
      <path class="st1" d="M68.2,48.4h-32.3v39.7h32.3v-39.7Z"/>
      <path class="st1" d="M72.1,88.2h-40v6.4h40v-6.4Z"/>
      <path class="st1" d="M43.8,44.3h9.9"/>
      <path class="st1" d="M41.7,88.2v-10.3"/>
      <path class="st1" d="M41.7,74.1v-3.6"/>
    </g>
  </g>
</svg>