<?xml version="1.0" encoding="UTF-8"?>
<svg id="Layer_1" xmlns="http://www.w3.org/2000/svg" version="1.1" viewBox="0 0 59.4 84.1">
  <!-- Generator: Adobe Illustrator 29.5.1, SVG Export Plug-In . SVG Version: 2.1.0 Build 141)  -->
  <defs>
    <style>
      .st0 {
        fill: none;
        stroke: #e5554f;
        stroke-linecap: round;
        stroke-linejoin: round;
        stroke-width: 2px;
      }

      .st1 {
        fill: #f9c6c2;
      }
    </style>
  </defs>
  <path class="st0" d="M40.8,17.8C34,7.6,29.8,1.1,29.8,1.1c0,0-4.6,6.8-11.5,17.1C10.8,29.3.9,43.1.9,54.8s13,28.8,28.8,28.8,28.8-13,28.8-28.8-10.2-25.5-17.8-36.9h0,0Z"/>
  <path class="st1" d="M32.1,35.9c-7.1,8.8-4.5,12.8-1.3,17.3,3.1,4.6,6.7,9.7,0,19.4,6.9-.6,12.8-7.4,13.6-16.5.8-9.9-4.6-18.8-12.2-20.2h-.1Z"/>
  <path class="st1" d="M28.4,54.8c-3.1-4.5-6.7-9.6.2-19.1-6.8.7-12.6,7.5-13.3,16.5-.8,9.8,4.5,18.6,12.1,20.2,6.9-9.1,4.2-13,1-17.6h0Z"/>
</svg>