<?xml version="1.0" encoding="UTF-8"?>
<svg id="Layer_1" xmlns="http://www.w3.org/2000/svg" xmlns:xlink="http://www.w3.org/1999/xlink" version="1.1" viewBox="0 0 48.2 71">
  <!-- Generator: Adobe Illustrator 29.5.1, SVG Export Plug-In . SVG Version: 2.1.0 Build 141)  -->
  <defs>
    <style>
      .st0, .st1 {
        fill: none;
      }

      .st1 {
        stroke-linecap: round;
        stroke-linejoin: round;
        stroke-width: 2px;
      }

      .st1, .st2 {
        stroke: #e45550;
      }

      .st2 {
        fill: #e45550;
        stroke-miterlimit: 10;
        stroke-width: .5px;
      }

      .st3 {
        fill: #fac7c3;
      }

      .st4 {
        clip-path: url(#clippath);
      }
    </style>
    <clipPath id="clippath">
      <rect class="st0" x="5.8" width="36.6" height="71"/>
    </clipPath>
  </defs>
  <g class="st4">
    <g>
      <path class="st3" d="M41.5,28.4v-5.4c0-1.5-1.2-2.7-2.6-2.7H9.3c-1.5,0-2.6,1.2-2.6,2.7v5.4c0,1.5,1.2,2.7,2.6,2.7-1.5,0-2.6,1.2-2.6,2.7v5.4c0,1.5,1.2,2.7,2.6,2.7-1.5,0-2.6,1.2-2.6,2.7v5.4c0,1.5,1.2,2.7,2.6,2.7-1.5,0-2.6,1.2-2.6,2.7v5.4c0,1.5,1.2,2.7,2.6,2.7h29.6c1.5,0,2.6-1.2,2.6-2.7v-5.4c0-1.5-1.2-2.7-2.6-2.7,1.5,0,2.6-1.2,2.6-2.7v-5.4c0-1.5-1.2-2.7-2.6-2.7,1.5,0,2.6-1.2,2.6-2.7v-5.4c0-1.5-1.2-2.7-2.6-2.7,1.5,0,2.6-1.2,2.6-2.7h0ZM27.8,45.2c-1.4,1.5-3.2,2.3-5,2.3h0c-1.3,0-2.5-.5-3.3-1.4h0c-2-2.2-1.6-6.2,1-8.9,1.4-1.5,3.3-2.3,5.1-2.3s2.6.5,3.4,1.5h0c2,2.2,1.5,6.2-1,8.8h-.2Z"/>
      <path class="st2" d="M28.9,36.4h0c-.9-.9-2.1-1.4-3.4-1.5-1.8,0-3.6.8-5.1,2.3-2.6,2.7-3,6.7-1,8.9h0c.9.9,2,1.4,3.3,1.4h0c1.8,0,3.6-.8,5-2.3,2.6-2.7,3-6.6,1-8.8h.2ZM21.1,37.9c1.2-1.3,2.8-2,4.3-2h0c.7,0,1.4.2,2,.6-3.1,1-3.4,2.9-3.8,4.6-.3,1.7-.6,3.3-3.7,4.1-1.5-1.9-1-5,1.1-7.3h.1ZM27.1,44.5c-1.2,1.3-2.8,2-4.3,2h0c-.7,0-1.4-.2-2-.6,3.1-1,3.5-3,3.8-4.7s.6-3.2,3.6-4c1.5,1.9,1,5-1.1,7.3h0Z"/>
      <path class="st1" d="M41.5,28.4v-5.4c0-1.3-.9-2.4-2.1-2.6v-2.1c0-8.9-8.6-12.2-8.6-12.2h-12.8s-8.7,4-8.7,12.2v2.1c-1.4,0-2.6,1.2-2.6,2.7v5.4c0,1.4,1.1,2.6,2.6,2.7-1.4,0-2.6,1.2-2.6,2.7v5.4c0,1.4,1.1,2.6,2.6,2.7h0c-1.4,0-2.6,1.2-2.6,2.7v5.4c0,1.4,1.1,2.6,2.6,2.7-1.4,0-2.6,1.2-2.6,2.7v5.4c0,1.4,1.1,2.6,2.6,2.7,0,0,0,6.8,8.6,6.8h12.3c8.7,0,9.3-6.8,9.3-6.8,1.2-.2,2.1-1.3,2.1-2.6v-5.4c0-1.3-.9-2.4-2.1-2.6h0c1.2-.3,2.1-1.4,2.1-2.7v-5.4c0-1.3-.9-2.4-2.1-2.6h0c1.2-.3,2.1-1.4,2.1-2.7v-5.4c0-1.3-.9-2.4-2.1-2.6h0c1.2-.3,2.1-1.4,2.1-2.7h0v-.5Z"/>
      <path class="st1" d="M30.5.9h-12.9c-1.2,0-2.2,1-2.2,2.3v.6c0,1.2,1,2.3,2.2,2.3h12.9c1.2,0,2.2-1,2.2-2.3v-.6c0-1.2-1-2.3-2.2-2.3Z"/>
    </g>
  </g>
</svg>