<?xml version="1.0" encoding="UTF-8"?>
<svg id="Layer_1" xmlns="http://www.w3.org/2000/svg" xmlns:xlink="http://www.w3.org/1999/xlink" version="1.1" viewBox="0 0 104 97.3">
  <!-- Generator: Adobe Illustrator 29.5.1, SVG Export Plug-In . SVG Version: 2.1.0 Build 141)  -->
  <defs>
    <style>
      .st0, .st1 {
        fill: none;
      }

      .st1 {
        stroke-linecap: round;
        stroke-linejoin: round;
        stroke-width: 1.2px;
      }

      .st1, .st2 {
        stroke: #e5554f;
      }

      .st3 {
        fill: #f9c6c2;
      }

      .st2 {
        fill: #ef5b51;
        stroke-miterlimit: 10;
        stroke-width: .1px;
      }

      .st4 {
        clip-path: url(#clippath);
      }
    </style>
    <clipPath id="clippath">
      <rect class="st0" x="30.7" y="0" width="42.6" height="97.3"/>
    </clipPath>
  </defs>
  <g class="st4">
    <g>
      <path class="st3" d="M50.8,14.1c1.9-4.8,4.1-10.1,14.9-9.7-4.1-4.9-12.2-6-19.6-1.9-8.1,4.4-12.2,13.2-9.5,20,10.6.7,12.2-3.4,14.1-8.4h0Z"/>
      <path class="st3" d="M53.3,15.1c-1.9,4.8-4,10-14.4,10h-.7c4,5.2,12.3,6.2,19.7,2.2,8.1-4.4,12.2-13.3,9.5-20.1-10.6-1-12.2,3.2-14.1,7.9h0Z"/>
      <path class="st1" d="M59.5,50.9c-4.5-6.9-7.4-11.2-7.4-11.2,0,0-3,4.5-7.7,11.5-5.1,7.5-11.6,16.9-11.6,24.7s8.6,19.5,19.3,19.5,19.3-8.8,19.3-19.5-6.9-17.3-11.9-24.9Z"/>
      <path class="st2" d="M52.2,79.5l-3.6-3.6,3.6-3.6,3.6,3.6-3.6,3.6ZM63.6,75.4h-2.9l1.8-1.9c.1-.1.1-.5,0-.7s-.4-.1-.7,0l-2.5,2.6h-2.9l-1.6-1.6,2.7-2.7h3.6c.3,0,.4,0,.4-.4s-.1-.5-.4-.5h-2.6l2.1-2.2c.1-.3.1-.5,0-.7s-.4-.1-.7,0l-2.1,2.1v-2.6c0-.3-.4-.5-.5-.5s-.4.3-.4.5v3.6l-2.6,2.7-1.5-1.6v-2.5l2.6-2.5c.1-.1.1-.5,0-.7s-.4-.1-.7,0l-1.9,1.8v-3.2c0-.3-.1-.5-.4-.5s-.4.1-.4.5v3.3l-1.9-1.8c-.1-.1-.4-.1-.7,0-.1.1-.1.5,0,.7l2.6,2.5v2.6l-1.5,1.6-2.5-2.5v-3.6c0-.3,0-.5-.4-.5s-.4.1-.4.5v2.6l-2.3-2.3c-.1-.1-.4-.1-.7,0-.1.1-.1.5,0,.7l2.2,2.3h-2.6c-.3,0-.4.4-.4.5s.3.5.4.5h3.6l2.5,2.5-1.5,1.6h-2.6l-2.5-2.6c-.1-.1-.4-.1-.7,0-.1.1-.1.5,0,.7l1.8,1.9h-3.2c-.3,0-.4.1-.4.5s.1.5.4.5h3.2l-1.8,1.9c-.1.1-.1.5,0,.7s.4.1.7,0l2.5-2.6h2.3l1.6,1.6-2.3,2.5h-3.6c-.3,0-.4,0-.4.4s.1.5.4.5h2.6l-2.2,2.3c-.1.1-.1.5,0,.7s.4.1.7,0l2.2-2.3v2.6c0,.3.4.5.5.5s.4-.3.4-.5v-3.6l2.3-2.5,1.8,1.8v2.9l-2.6,2.5c-.1.1-.1.5,0,.7s.4.1.7,0l1.9-1.8v2.9c0,.3.1.5.4.5s.4-.1.4-.5v-2.9l1.9,1.8c.1.1.4.1.7,0,.1-.1.1-.5,0-.7l-2.6-2.5v-2.7l1.8-1.8,2.6,2.6v3.6c0,.3,0,.5.4.5s.4-.1.4-.5v-2.6l2.2,2.1c.1.1.4.1.7,0,.1-.1.1-.5,0-.7l-2.1-2.1h2.6c.3,0,.4-.4.4-.5s-.3-.5-.4-.5h-3.6l-2.6-2.6,1.8-1.8h2.7l2.5,2.6c.1.1.4.1.7,0,.1-.1.1-.5,0-.7l-1.8-1.9h2.9c.3,0,.4-.1.4-.5s-.1-.5-.4-.5h-.5Z"/>
    </g>
  </g>
</svg>