<svg width="58" height="50" viewBox="0 0 58 50" fill="none" xmlns="http://www.w3.org/2000/svg">
<path id="Vector" d="M57.9955 12.413C57.9932 12.3927 57.9921 12.3735 57.9887 12.3544C57.9853 12.3307 57.9796 12.3059 57.9739 12.2822C57.9694 12.262 57.9649 12.2428 57.9592 12.2236C57.9524 12.2 57.9434 12.1775 57.9343 12.1549C57.9264 12.1358 57.9196 12.1166 57.9105 12.0974C57.9071 12.0896 57.9048 12.0817 57.9003 12.0738C57.8935 12.0591 57.8833 12.0456 57.8754 12.031C57.8652 12.0129 57.8561 11.996 57.8448 11.9791C57.8301 11.9566 57.8142 11.9363 57.7984 11.9149C57.7904 11.9048 57.7836 11.8935 57.7757 11.8834L48.1102 0.343677C48.1011 0.332409 48.0898 0.322268 48.0807 0.312127C48.0671 0.297478 48.0547 0.28283 48.0411 0.269308C48.0309 0.259167 48.0195 0.251279 48.0093 0.241138C47.9708 0.207333 47.9312 0.176909 47.8881 0.149866C47.8813 0.145359 47.8757 0.140851 47.8689 0.137471C47.8462 0.123949 47.8235 0.112681 47.7998 0.101413C47.7896 0.095779 47.7794 0.0912717 47.768 0.0856377C47.7454 0.0754964 47.7216 0.0664819 47.6978 0.0574674C47.6865 0.0529601 47.6751 0.0495797 47.6627 0.0461993C47.6389 0.0383116 47.614 0.0315507 47.589 0.0259167C47.5777 0.023663 47.5664 0.0214094 47.5551 0.0191558C47.529 0.0135217 47.5029 0.00901449 47.4758 0.00563406C47.4701 0.00563406 47.4656 0.00563406 47.4599 0.00563406C47.4293 0.00225362 47.3987 0 47.367 0H10.6341C10.6058 0 10.5775 0.00338043 10.5503 0.00563406C10.5412 0.00563406 10.5322 0.00563406 10.5242 0.00788768C10.5016 0.0101413 10.4789 0.0146485 10.4563 0.0191558C10.4404 0.0225362 10.4234 0.0247898 10.4076 0.0292971C10.3883 0.0338043 10.3679 0.0394384 10.3486 0.0461993C10.3294 0.0518333 10.3113 0.0585942 10.292 0.0653551C10.2761 0.0709891 10.2592 0.07775 10.2433 0.0845108C10.2206 0.0946522 10.198 0.10592 10.1753 0.118315C10.164 0.123949 10.1527 0.129583 10.1425 0.136344C10.0734 0.176909 10.0099 0.225362 9.95215 0.281703C9.94988 0.283956 9.94875 0.28621 9.94648 0.288464C9.92722 0.307619 9.90797 0.327902 9.88984 0.348185L0.252627 11.8484C0.252627 11.8484 0.249228 11.8518 0.248096 11.8541L0.224306 11.8834C0.224306 11.8834 0.216376 11.8946 0.211844 11.9003C0.19032 11.9273 0.169929 11.9555 0.15067 11.9848C0.14274 11.9972 0.135943 12.0084 0.129146 12.0208C0.11895 12.0377 0.107621 12.0546 0.0985585 12.0727C0.0940271 12.0817 0.0906285 12.0918 0.0860971 12.102C0.0793 12.1177 0.0725028 12.1346 0.0657057 12.1504C0.05551 12.1752 0.0464471 12.2 0.03965 12.2248C0.0339857 12.2451 0.0294543 12.2642 0.0249228 12.2845C0.0192586 12.307 0.0147271 12.3296 0.0113286 12.3521C0.00793 12.3746 0.00566428 12.3983 0.00339857 12.422C0.00226571 12.4423 0 12.4625 0 12.4828C0 12.5076 0 12.5335 0.00226571 12.5583C0.00339857 12.5763 0.00453143 12.5955 0.00679714 12.6135C0.0101957 12.6394 0.0147271 12.6654 0.0192586 12.6913C0.0226571 12.7093 0.0271886 12.7273 0.03172 12.7442C0.0385171 12.769 0.0464471 12.7938 0.05551 12.8186C0.0623071 12.8366 0.0691043 12.8547 0.0770343 12.8727C0.0815657 12.884 0.0849643 12.8964 0.0906285 12.9076C0.0962928 12.92 0.104223 12.9302 0.109887 12.9426C0.11895 12.9595 0.129146 12.9775 0.139341 12.9944C0.152936 13.0169 0.167663 13.0395 0.183523 13.0609C0.189187 13.0688 0.192586 13.0766 0.19825 13.0834L28.2319 49.6214C28.2534 49.6496 28.2761 49.6755 28.301 49.7014C28.3056 49.7059 28.3101 49.7115 28.3158 49.716C28.3361 49.7363 28.3577 49.7566 28.3803 49.7746C28.3849 49.778 28.3894 49.7825 28.3939 49.7859C28.4438 49.8265 28.4981 49.8625 28.5571 49.893C28.5616 49.8952 28.565 49.8963 28.5695 49.8986C28.5718 49.8997 28.5752 49.9008 28.5774 49.902C28.5854 49.9053 28.5933 49.9087 28.6001 49.9121C28.625 49.9234 28.6488 49.9346 28.6737 49.9437C28.6737 49.9437 28.6737 49.9437 28.6749 49.9437C28.6749 49.9437 28.6771 49.9437 28.6783 49.9437C28.6817 49.9448 28.6851 49.9459 28.6885 49.947C28.7904 49.982 28.8958 50 29.0011 50C29.0385 50 29.0759 49.9977 29.1133 49.9932C29.1257 49.9921 29.1393 49.9887 29.1518 49.9865C29.1756 49.9831 29.1994 49.9797 29.222 49.9741C29.222 49.9741 29.222 49.9741 29.2232 49.9741C29.2356 49.9707 29.2481 49.9662 29.2617 49.9628C29.2843 49.9572 29.3059 49.9504 29.3274 49.9425C29.3297 49.9425 29.3319 49.9403 29.3342 49.9403C29.341 49.938 29.3478 49.9346 29.3534 49.9324C29.4599 49.8907 29.5585 49.831 29.6457 49.7532C29.6525 49.7476 29.6582 49.742 29.6639 49.7363C29.6808 49.7206 29.6967 49.7048 29.7126 49.6867C29.716 49.6822 29.7194 49.6789 29.7228 49.6744C29.7375 49.6574 29.7533 49.6417 29.7681 49.6225L57.8029 13.0823C57.8131 13.0699 57.8199 13.0552 57.8289 13.0417C57.8369 13.0304 57.8448 13.0192 57.8516 13.0068C57.8686 12.9797 57.8833 12.9527 57.898 12.9245C57.9014 12.9178 57.906 12.911 57.9094 12.9042C57.9128 12.8975 57.9139 12.8907 57.9173 12.884C57.9286 12.8569 57.94 12.8299 57.949 12.8017C57.9547 12.7859 57.9592 12.769 57.9637 12.7533C57.9705 12.7273 57.9762 12.7014 57.9819 12.6744C57.9853 12.6563 57.9887 12.6383 57.9909 12.6192C57.9943 12.5944 57.9955 12.5685 57.9977 12.5437C57.9977 12.5245 58 12.5054 57.9989 12.4851C57.9989 12.4603 57.9966 12.4355 57.9943 12.4107L57.9955 12.413ZM47.5075 2.62885L54.9685 11.5352H42.2839L47.5063 2.62885H47.5075ZM45.6847 1.92121L40.3977 10.9368L31.3337 1.92121H45.6847ZM29.0011 2.31898L38.2668 11.5352H19.7355L29.0011 2.31898ZM26.6663 1.92121L17.6023 10.9368L12.3153 1.92121H26.6663ZM10.4925 2.62772L15.7161 11.5352H3.03039L10.4925 2.62772ZM2.91937 13.4598H16.6915L26.4126 44.0797L2.91937 13.4598ZM29.0011 45.8432L18.7193 13.4598H39.2818L29 45.8443L29.0011 45.8432ZM31.5886 44.0786L41.3096 13.4598H55.0818L31.5886 44.0786Z" fill="#E5554F"/>
</svg>
