<svg width="56" height="50" viewBox="0 0 56 50" fill="none" xmlns="http://www.w3.org/2000/svg">
<g clip-path="url(#clip0_2956_22123)">
<path d="M40.9324 28.5022C46.9409 23.6 51.2375 19.3873 53.8561 21.5915C56.2205 23.5745 54.9578 25.7277 53.1443 27.2936C51.7121 28.5362 41.2121 37.8383 36.89 42.0851C35.7036 43.2511 34.0849 43.9064 32.39 43.9064H16.5256L10.246 49.1575L0.847656 39.8128L13.2036 28.817C14.1443 27.983 15.3731 27.5149 16.6527 27.5149H37.551C40.1951 27.5149 41.568 28.2468 41.568 30.6298C41.568 34.5277 39.0595 34.017 25.7799 34.017" stroke="#E5554F" stroke-width="2" stroke-linecap="round" stroke-linejoin="round"/>
<path d="M26.8659 22.1021C26.8659 22.1021 26.0778 15.8978 31.0524 11.0553C36.027 6.21274 43.6541 7.08934 43.6541 7.08934C43.6541 7.08934 44.0693 13.4383 38.6965 18.6638C33.3236 23.8893 26.8744 22.0936 26.8744 22.0936L26.8659 22.1021Z" stroke="#E5554F" stroke-width="2" stroke-linecap="round" stroke-linejoin="round"/>
<g opacity="0.35">
<path d="M26.7794 22.766C26.6522 22.7319 26.5506 22.6213 26.5336 22.4851C26.4997 22.2213 25.9065 16.2383 30.4743 10.8851C30.9319 10.3489 31.72 9.55744 32.3811 9.11489C31.5251 3.10638 27.9912 0.238291 27.8048 0.0765894C27.6861 -0.0255383 27.5082 -0.0340489 27.3811 0.0680787C27.1268 0.263823 21.237 4.8851 21.2539 11.8213C21.2794 18.7574 26.2794 22.6042 26.4912 22.766C26.5506 22.8085 26.6183 22.834 26.6946 22.834C26.7455 22.834 26.8048 22.817 26.8556 22.7915C26.8048 22.783 26.7709 22.7745 26.7709 22.7745L26.7794 22.766Z" fill="#EF5B51"/>
</g>
</g>
<defs>
<clipPath id="clip0_2956_22123">
<rect width="56" height="50" fill="white"/>
</clipPath>
</defs>
</svg>
