<svg width="49" height="50" viewBox="0 0 49 50" fill="none" xmlns="http://www.w3.org/2000/svg">
<path d="M1.22904 25.8737C0.964414 25.9587 0.746423 26.1467 0.626781 26.3948C0.480778 26.6958 -2.73231 33.7218 6.94244 43.8622C5.06772 45.2133 3.11594 46.5255 1.07797 47.7777C0.602447 48.0697 0.457458 48.6868 0.75352 49.1559C0.94515 49.4599 1.2767 49.627 1.61535 49.627C1.79886 49.627 1.9834 49.5779 2.14968 49.4759C4.36406 48.1157 6.47908 46.6855 8.50386 45.2123C14.3339 49.0489 18.6612 50 21.5022 50C24.1232 50 25.4818 49.1979 25.5964 49.1269C25.9908 48.8829 26.1662 48.4048 26.0212 47.9687L25.5366 46.5075C31.9344 48.5248 37.4713 44.5233 37.7278 44.3342C38.0178 44.1212 38.1699 43.7711 38.1283 43.4171C38.0868 43.0631 37.8556 42.758 37.5251 42.616L35.406 41.7099C39.5296 40.5367 42.6544 37.1552 42.8298 36.9632C43.0691 36.7002 43.1492 36.3321 43.0428 35.9951C42.9363 35.658 42.6555 35.402 42.3067 35.321L40.4512 34.8909C43.6734 33.0897 45.2531 29.6232 45.3413 29.4262C45.4741 29.1271 45.4498 28.7831 45.2784 28.5041C45.1061 28.225 44.807 28.047 44.4764 28.026L43.1634 27.943C45.4833 26.1147 46.6341 23.6364 46.7 23.4894C46.8439 23.1743 46.8115 22.8083 46.6168 22.5222C46.4221 22.2362 46.0926 22.0722 45.7398 22.0812L44.9652 22.1082C46.6107 20.437 47.356 18.4637 47.4016 18.3377C47.5162 18.0266 47.4675 17.6796 47.2718 17.4115C47.0761 17.1435 46.7638 16.9925 46.4221 16.9965L45.6698 17.0165C48.1752 14.9932 48.6487 12.8109 48.673 12.6869C48.7389 12.3569 48.6345 12.0168 48.3922 11.7808C48.1519 11.5447 47.8061 11.4417 47.4715 11.5127L46.7466 11.6618C48.3455 9.8175 48.9214 7.96025 48.9579 7.84023C49.0583 7.50819 48.9762 7.14914 48.742 6.8911C48.5088 6.63207 48.1539 6.51205 47.8102 6.57206L45.17 7.02812L46.7243 1.7354C46.8409 1.33434 46.6949 0.903284 46.3552 0.654249C46.0145 0.405215 45.5563 0.391213 45.1994 0.616244L40.7493 3.45463L40.9298 1.07431C40.9572 0.716258 40.7878 0.37121 40.4857 0.171183C40.1846 -0.0288443 39.7972 -0.0558478 39.4708 0.102174C39.3572 0.157181 37.5555 1.0483 35.8562 2.86555L35.9829 1.48436C36.0174 1.10531 35.8318 0.740261 35.5023 0.542234C35.1738 0.342207 34.7581 0.345207 34.4326 0.548235C34.3241 0.615244 32.5295 1.7504 31.1607 3.87969L30.959 2.69853C30.8992 2.35348 30.6629 2.06444 30.3344 1.93542C30.0059 1.80841 29.6328 1.85641 29.3479 2.06644C29.2161 2.16446 27.171 3.70467 25.6836 5.85796L25.4909 4.30175C25.4544 4.00071 25.2801 3.73267 25.0195 3.57265C24.7569 3.41263 24.4365 3.37862 24.1475 3.47964C24.0289 3.52164 21.9625 4.27975 20.0493 7.43018V7.11813C20.0493 6.8471 19.9377 6.58806 19.74 6.39904C19.5433 6.21101 19.298 6.105 19.0009 6.118C18.6247 6.13 15.731 6.40204 13.5045 11.7208L13.3493 11.0747C13.2703 10.7416 13.0229 10.4716 12.6944 10.3606C12.3679 10.2476 12.0039 10.3086 11.7322 10.5226C11.5527 10.6626 8.15812 13.38 7.42912 17.8436L6.6626 16.6754C6.48111 16.3994 6.17592 16.2294 5.84234 16.2184C5.48545 16.2114 5.19243 16.3614 4.99471 16.6244C4.85581 16.8095 1.98847 20.745 3.50224 26.7348L2.02294 25.9447C1.7796 25.8147 1.49165 25.7887 1.22904 25.8737ZM4.80106 29.7022C5.18026 29.9033 5.64666 29.8492 5.96604 29.5622C6.28441 29.2762 6.3858 28.8231 6.21749 28.4321C4.39752 24.1985 5.16404 20.919 5.89405 19.1828L7.60858 21.7971C7.8722 22.1972 8.38219 22.3572 8.83034 22.1852C9.27849 22.0112 9.5411 21.5501 9.45897 21.082C8.82325 17.4926 10.5368 14.7472 11.797 13.278L12.3679 15.6513C12.4743 16.0994 12.8799 16.4174 13.3463 16.4214H13.3544C13.8188 16.4214 14.2233 16.1104 14.3379 15.6663C15.4715 11.2417 17.0126 9.40345 18.0235 8.64434V12.3879C18.0235 12.8869 18.3966 13.309 18.8975 13.378C19.3892 13.451 19.8739 13.141 20.0128 12.6609C21.0784 8.96339 22.6277 7.06413 23.6781 6.144L24.1556 9.99853C24.2185 10.5146 24.7173 10.8796 25.1979 10.8766C25.7252 10.8576 26.149 10.4436 26.1743 9.92452C26.2635 8.08727 27.9122 6.08699 29.2627 4.78982L29.7615 7.71222C29.8437 8.19128 30.2624 8.54333 30.7552 8.54633H30.7613C31.251 8.54633 31.6718 8.20028 31.7589 7.72422C32.0621 6.06799 32.9168 4.75181 33.7341 3.82568L33.4643 6.76809C33.4187 7.26515 33.7513 7.71922 34.2451 7.83223C34.7307 7.94425 35.2397 7.68321 35.4202 7.21815C36.1918 5.24488 37.6285 3.82368 38.7549 2.94956L38.5755 5.31189C38.5471 5.69094 38.7377 6.05299 39.0682 6.24701C39.4008 6.44104 39.8135 6.43304 40.1369 6.22701L44.0212 3.74967L42.77 8.01026C42.6727 8.3423 42.7558 8.69935 42.9901 8.95639C43.2233 9.21342 43.5751 9.33344 43.9198 9.27343L46.265 8.86837C45.5481 10.0885 44.2574 11.7128 42.1374 12.6359C41.6628 12.8429 41.4236 13.37 41.5817 13.8571C41.7409 14.3451 42.2489 14.6362 42.7548 14.5292L45.902 13.8791C45.1771 14.9062 43.8204 16.2244 41.3212 17.1865C40.8629 17.3635 40.5992 17.8396 40.6966 18.3167C40.7939 18.7927 41.2248 19.1348 41.7176 19.1178L44.7948 19.0378C44.0881 20.2039 42.8349 21.7581 40.9866 22.2722C40.4928 22.4092 40.1805 22.8893 40.2596 23.3894C40.3387 23.8894 40.7828 24.2545 41.2968 24.2345L43.9675 24.1415C43.0539 25.4426 41.4367 27.2109 39.1585 27.731C38.6688 27.843 38.3352 28.292 38.3768 28.7871C38.4183 29.2822 38.8208 29.6722 39.3237 29.7042L42.7386 29.9193C41.6933 31.5005 39.5569 33.9578 36.3925 33.9578C36.3702 33.9578 36.3459 33.9578 36.3236 33.9578C35.8146 33.9578 35.3685 34.3309 35.3056 34.8369C35.2417 35.343 35.5763 35.8151 36.0802 35.9321L40.0162 36.8452C38.1963 38.3804 34.7388 40.7337 31.251 39.9506C30.746 39.8366 30.2249 40.1226 30.0627 40.6147C29.8994 41.1058 30.1418 41.6379 30.6224 41.8439L34.9061 43.6771C32.7211 44.7583 28.6087 46.1015 24.3604 43.8502C23.9985 43.6581 23.5483 43.7021 23.2309 43.9652C22.9136 44.2272 22.7889 44.6543 22.9176 45.0423L23.7987 47.7037C22.1471 48.1738 17.6635 48.6518 10.2265 43.9342C12.083 42.524 13.8583 41.0808 15.5455 39.6196C21.0257 35.9981 27.9649 37.2643 28.0338 37.2773C28.5803 37.3823 29.1147 37.0282 29.2221 36.4862C29.3286 35.9441 28.9717 35.42 28.4232 35.314C28.1981 35.27 24.3503 34.5669 19.9256 35.62C23.1772 32.4926 26.0456 29.3682 28.5307 26.4228C31.8259 24.2755 35.9961 24.9986 36.0549 25.0086C36.6024 25.1076 37.1337 24.7545 37.2391 24.2125C37.3446 23.6704 36.9826 23.1463 36.4321 23.0433C36.2911 23.0173 33.9247 22.5923 31.1506 23.2093C34.6374 18.7857 37.158 14.9782 38.69 12.4969C38.981 12.0248 38.83 11.4097 38.3514 11.1227C37.8728 10.8356 37.2493 10.9837 36.9573 11.4567C35.7244 13.454 33.8395 16.3264 31.3179 19.6869C31.7427 16.9685 31.4294 14.8492 31.4061 14.6982C31.3199 14.1531 30.8049 13.784 30.2492 13.8641C29.6967 13.9481 29.3174 14.4591 29.4016 15.0042C29.4107 15.0612 30.2462 20.761 27.026 25.0786C27.024 25.0806 27.024 25.0836 27.0219 25.0866C24.5439 28.028 21.6766 31.1504 18.4199 34.2758C20.251 28.9321 19.5139 23.9664 19.4713 23.6934C19.3852 23.1493 18.8711 22.7803 18.3145 22.8593C17.7609 22.9433 17.3817 23.4544 17.4668 23.9994C17.48 24.0795 18.6511 32.0585 14.1534 38.1634C12.3912 39.6866 10.5337 41.1908 8.58498 42.656C1.76743 35.589 1.74817 30.3993 2.15576 28.289L4.80106 29.7022Z" fill="#E5554F"/>
</svg>
