<?xml version="1.0" encoding="UTF-8"?>
<svg id="Layer_1" xmlns="http://www.w3.org/2000/svg" xmlns:xlink="http://www.w3.org/1999/xlink" version="1.1" viewBox="0 0 104 97.3">
  <!-- Generator: Adobe Illustrator 29.5.1, SVG Export Plug-In . SVG Version: 2.1.0 Build 141)  -->
  <defs>
    <style>
      .st0, .st1 {
        fill: none;
      }

      .st1 {
        stroke-linecap: round;
        stroke-linejoin: round;
        stroke-width: 1.1px;
      }

      .st1, .st2 {
        stroke: #e5554f;
      }

      .st3 {
        fill: #f9c6c2;
      }

      .st2 {
        fill: #e5554f;
        stroke-miterlimit: 10;
        stroke-width: .1px;
      }

      .st4 {
        clip-path: url(#clippath);
      }
    </style>
    <clipPath id="clippath">
      <rect class="st0" x="30.4" width="43.1" height="97.3"/>
    </clipPath>
  </defs>
  <g class="st4">
    <g>
      <path class="st3" d="M50.8,14.1c1.9-4.8,4.1-10.1,15.1-9.7-4.1-5-12.4-6-19.8-2-8.2,4.4-12.3,13.2-9.6,20,10.7.7,12.4-3.5,14.3-8.3h0Z"/>
      <path class="st3" d="M53.2,15.1c-1.9,4.7-4,10-14.5,10h-.6c4.1,5.2,12.4,6.2,19.9,2.2,8.2-4.4,12.4-13.3,9.5-20.1-10.6-1-12.3,3.2-14.3,7.9h0Z"/>
      <path class="st1" d="M59.5,50.8c-4.6-6.8-7.5-11.3-7.5-11.3,0,0-3.1,4.6-7.7,11.5-5.1,7.5-11.7,16.8-11.7,24.7s8.7,19.5,19.5,19.5,19.5-8.7,19.5-19.5-6.9-17.2-12-24.9Z"/>
      <path class="st2" d="M53.8,58.6c-1.7,1.1-3.2,3.8-3.6,5.6-.2,1.2-.1,2.3,0,3.5-.7-.8-1.2-1.7-1.3-3.2,0-.2-.2-.4-.4-.5-.2,0-.5,0-.6.1-3.4,3-5.5,7.5-5.5,11.8s2.7,7.9,6.7,10.1c.2.1.5,0,.7,0,.2-.2.3-.5.1-.7-.2-.5-.4-.9-.4-1.5,0-1.7,1.1-3.5,2.5-4.4,1.4.8,2.5,2.6,2.5,4.4s-.2,1-.4,1.5c-.1.2,0,.5.1.7.2.2.5.2.7,0,4-2.2,6.7-5.4,6.7-10.2s-.3-.6-.6-.6-.6.3-.6.6c0,3.8-1.8,6.3-4.7,8.2,0-.1,0-.2,0-.3,0-2.4-1.4-4.7-3.5-5.7-.2,0-.4,0-.5,0-2.1,1-3.5,3.3-3.5,5.7s0,.2,0,.3c-2.9-1.9-4.7-4.3-4.7-8.1s1.6-7.4,4.3-10.1c.4,1.8,1.5,3.1,2.8,3.9.2.1.5.1.7,0,.2-.1.3-.4.3-.6-.4-1.8-.6-3.2-.3-4.6.2-1.1.8-2.3,2-3.7.3,2.3,1.5,4.1,2.8,5.8,1.6,2.1,3.3,4.1,4,6.9,0,.3.4.6.8.5.3,0,.5-.5.4-.8-.8-3.1-2.6-5.3-4.2-7.3-1.6-2-2.8-3.9-2.6-6.5,0-.4-.4-.7-.7-.7h0Z"/>
    </g>
  </g>
</svg>