<svg width="50" height="50" viewBox="0 0 50 50" fill="none" xmlns="http://www.w3.org/2000/svg">
<g id="Group 334">
<path id="Vector" d="M31.6661 0C21.5571 0 13.3331 8.22403 13.3331 18.333C13.3331 22.1855 14.5306 25.7629 16.5689 28.717L12.7248 32.562C12.0415 31.992 11.1981 31.667 10.2965 31.667C9.27651 31.667 8.31819 32.0636 7.59821 32.7845L1.99247 38.3902C0.707488 39.6743 0 41.3826 0 43.1993C0 45.0159 0.707488 46.7234 1.99247 48.0084C3.27745 49.2933 4.98492 50 6.80155 50C8.61819 50 10.3257 49.2925 11.6106 48.0075L17.2164 42.4018C17.9372 41.681 18.3347 40.7227 18.3347 39.7027C18.3347 38.8019 18.0089 37.9585 17.4389 37.2744L21.2838 33.4303C24.2379 35.4686 27.8154 36.6661 31.6678 36.6661C41.7768 36.6661 50.0008 28.442 50.0008 18.333C50.0008 8.22403 41.7751 0 31.6661 0ZM16.0364 41.2235L10.4307 46.8292C9.46151 47.7992 8.17153 48.3334 6.80072 48.3334C5.42991 48.3334 4.14076 47.7992 3.17078 46.8301C2.2008 45.8609 1.66664 44.5709 1.66664 43.2001C1.66664 41.8293 2.2008 40.5393 3.17078 39.5693L8.77652 33.9636C9.18235 33.5578 9.72234 33.3344 10.2965 33.3344C10.8707 33.3344 11.4106 33.5578 11.8165 33.9636L16.0364 38.1827C16.4422 38.5885 16.6664 39.1293 16.6664 39.7035C16.6664 40.2777 16.4422 40.8168 16.0364 41.2235ZM16.2831 36.0727L13.9264 33.7169L17.5847 30.0578C18.298 30.9128 19.0863 31.702 19.9413 32.4145L16.2831 36.0727ZM31.6661 35.0002C22.4763 35.0002 14.9998 27.5237 14.9998 18.3339C14.9998 9.14401 22.4763 1.66664 31.6661 1.66664C40.856 1.66664 48.3325 9.14318 48.3325 18.333C48.3325 27.5229 40.856 35.0002 31.6661 35.0002Z" fill="#E5554F"/>
</g>
</svg>
