<?xml version="1.0" encoding="UTF-8"?>
<svg id="Layer_1" xmlns="http://www.w3.org/2000/svg" xmlns:xlink="http://www.w3.org/1999/xlink" version="1.1" viewBox="0 0 104 71">
  <!-- Generator: Adobe Illustrator 29.5.1, SVG Export Plug-In . SVG Version: 2.1.0 Build 141)  -->
  <defs>
    <style>
      .st0, .st1 {
        fill: none;
      }

      .st2 {
        mask: url(#mask);
      }

      .st3 {
        mask: url(#mask-1);
      }

      .st1 {
        stroke: #e45550;
        stroke-linecap: round;
        stroke-linejoin: round;
        stroke-width: 2px;
      }

      .st4 {
        fill: #fff;
      }

      .st5 {
        fill: #fac7c3;
      }

      .st6 {
        clip-path: url(#clippath);
      }
    </style>
    <clipPath id="clippath">
      <rect class="st0" x="25" width="58.1" height="71"/>
    </clipPath>
    <mask id="mask" x="52.8" y="14.2" width="15.7" height="57.1" maskUnits="userSpaceOnUse">
      <g id="mask0_3903_19508">
        <path class="st4" d="M67.6,14.3h-14.7v56.9h14.7V14.3Z"/>
      </g>
    </mask>
    <mask id="mask-1" x="66.6" y="14.2" width="15.7" height="57.1" maskUnits="userSpaceOnUse">
      <g id="mask1_3903_19508">
        <path class="st4" d="M82.3,14.3h-14.7v56.9h14.7V14.3Z"/>
      </g>
    </mask>
  </defs>
  <g class="st6">
    <g>
      <path class="st5" d="M53.9,45.9c0,6.3,0,10.9.2,14.2h27c.1-3.3.2-7.9.2-14.2s.1-11.6,0-15.3h-27.3c-.2,3.8,0,8.8,0,15.3Z"/>
      <g class="st2">
        <path class="st1" d="M67.6,70.3h-9.4c-1.6,0-2.9-.3-3.4-2.4-.6-2.1-.9-7.8-.9-21.3s-.4-18,.9-21.6c1.6-4.4,7.6-7.6,7.6-7.6v-2.2h5.2"/>
      </g>
      <g class="st3">
        <path class="st1" d="M67.6,70.3h9.4c1.6,0,2.9-.3,3.4-2.4.6-2.1.9-7.8.9-21.3s.4-18-.9-21.6c-1.6-4.4-7.6-7.6-7.6-7.6v-2.2h-5.2"/>
      </g>
      <path class="st1" d="M63.5,11.8h8.3c.8,0,1.5.7,1.5,1.5v1.9h-11.3v-1.9c0-.8.7-1.5,1.5-1.5h0Z"/>
      <path class="st5" d="M28.3,32c-.6,3.5-.8,7.3-.5,10.8,0,.5,0,.9.1,1.4h18c0-.5,0-.9.1-1.4.3-3.6.1-7.3-.5-10.8,0-.1,0-.3,0-.4h-17.2c0,.1,0,.3,0,.4Z"/>
      <path class="st1" d="M46.1,62.3c-.5-2.7-1-5.5-1-8.3,0-3.8.7-7.5,1-11.2.3-3.6.1-7.3-.5-10.8-.7-4.1-2.9-7.6-3.7-11.6-1.1-5.8-.6-10.2-.6-10.2h-8.8s.5,4.4-.6,10.2c-.8,4-3,7.5-3.7,11.6-.6,3.5-.8,7.3-.5,10.8.3,3.7,1.1,7.5,1,11.2,0,2.8-.6,5.5-1,8.3-.3,1.9-1.4,5.3.6,6.7,2.1,1.5,7.2,1.4,8.6,1.4,1.4,0,6.5,0,8.6-1.4,2-1.4.9-4.8.6-6.7Z"/>
      <path class="st1" d="M41.6,5.6h-9.1v4.7h9.1v-4.7Z"/>
      <path class="st1" d="M40.6,2.7h-7.2c-.6,0-1.2.5-1.3,1.1l-.2,1.8h10.2l-.2-1.8c0-.6-.6-1.1-1.3-1.1Z"/>
    </g>
  </g>
</svg>