<?xml version="1.0" encoding="UTF-8"?>
<svg id="Layer_1" xmlns="http://www.w3.org/2000/svg" xmlns:xlink="http://www.w3.org/1999/xlink" version="1.1" viewBox="0 0 104 97.3">
  <!-- Generator: Adobe Illustrator 29.5.1, SVG Export Plug-In . SVG Version: 2.1.0 Build 141)  -->
  <defs>
    <style>
      .st0, .st1 {
        fill: none;
      }

      .st1 {
        stroke: #e5554f;
        stroke-linecap: round;
        stroke-linejoin: round;
        stroke-width: 1px;
      }

      .st2 {
        fill: #f9c6c2;
      }

      .st3 {
        clip-path: url(#clippath);
      }
    </style>
    <clipPath id="clippath">
      <rect class="st0" x="11.4" y="22.9" width="81.2" height="51.5"/>
    </clipPath>
  </defs>
  <g class="st3">
    <g>
      <path class="st2" d="M87.6,47.8c-1.9-2.9-3.1-4.7-3.1-4.7,0,0-1.3,1.9-3.2,4.8-2.1,3.2-4.9,7-4.9,10.3s3.6,8.1,8.1,8.1,8.1-3.6,8.1-8.1-2.9-7.2-5-10.4Z"/>
      <path class="st2" d="M67.8,51.2l-11.8-23-36.7,18.9,11.8,23,36.7-18.9Z"/>
      <path class="st1" d="M26.5,72.4l43.2-22.2c5.3-2.7,5.4-9.3,5.4-9.3l3.3-1.7-3.1-6-.3-.5-3.1-6-3.3,1.7s-5.4-3.8-10.7-1.1L14.7,49.5s-2.8,1.3-1.4,4c1.3,2.6,3.6,7.1,4.4,8.6l.3.5c.8,1.5,3.1,6.1,4.4,8.6,1.4,2.7,4.1,1.2,4.1,1.2Z"/>
      <path class="st1" d="M82.2,37.7l-6.8-13.2-3.6,1.9,6.8,13.2,3.6-1.9Z"/>
    </g>
  </g>
</svg>