<svg width="97" height="50" viewBox="0 0 97 50" fill="none" xmlns="http://www.w3.org/2000/svg">
<g clip-path="url(#clip0_2956_22152)">
<path d="M16.9993 13.5389H5.1875V16.1169H16.9993V13.5389Z" fill="#F9C6C2"/>
<path d="M20.5657 18.3547H5.1875V20.9327H20.5657V18.3547Z" fill="#F9C6C2"/>
<path d="M51.1465 21.7251H40.8008V32.0681H51.1465V21.7251Z" fill="#F9C6C2" stroke="#F9C6C2" stroke-width="0.843713" stroke-linejoin="round"/>
<path d="M71.8379 21.7251H61.4922V32.0681H71.8379V21.7251Z" fill="#F9C6C2" stroke="#F6C3C1" stroke-width="0.843713" stroke-linejoin="round"/>
<path d="M71.8379 1.04065H61.4922V11.3837H71.8379V1.04065Z" fill="#F9C6C2" stroke="#F9C6C2" stroke-width="0.843713" stroke-linejoin="round"/>
<path d="M61.4902 11.3868H51.1445V21.7299H61.4902V11.3868Z" fill="#F9C6C2" stroke="#F6C3C1" stroke-width="0.843713" stroke-linejoin="round"/>
<path d="M82.1816 11.3868H71.8359V21.7299H82.1816V11.3868Z" fill="#F9C6C2" stroke="#F9C6C2" stroke-width="0.843713" stroke-linejoin="round"/>
<path d="M61.4902 21.7251H51.1445V32.0681H61.4902V21.7251Z" stroke="#EF5B51" stroke-width="1.68743" stroke-linecap="round" stroke-linejoin="round"/>
<path d="M61.4902 1.04065H51.1445V11.3837H61.4902V1.04065Z" stroke="#E5554F" stroke-width="1.68743" stroke-linecap="round" stroke-linejoin="round"/>
<path d="M82.1816 21.7251H71.8359V32.0681H82.1816V21.7251Z" stroke="#E5554F" stroke-width="1.68743" stroke-linecap="round" stroke-linejoin="round"/>
<path d="M51.1465 11.3868H40.8008V21.7299H51.1465V11.3868Z" stroke="#E5554F" stroke-width="1.68743" stroke-linecap="round" stroke-linejoin="round"/>
<path d="M71.8379 11.3868H61.4922V21.7299H71.8379V11.3868Z" stroke="#E5554F" stroke-width="1.68743" stroke-linecap="round" stroke-linejoin="round"/>
<path d="M12.3829 47.6428L1.03906 23.9421H31.3795L35.7049 32.1958L95.9595 32.2893L89.305 46.8839" stroke="#E5554F" stroke-width="1.68743" stroke-linecap="round" stroke-linejoin="round"/>
<path d="M28.2603 23.9437H4.63672V10.5342H21.0027L28.2603 23.9437Z" stroke="#E5554F" stroke-width="1.68743" stroke-linecap="round" stroke-linejoin="round"/>
<path d="M17.0433 3.00586H8.65234V10.5215H17.0433V3.00586Z" stroke="#E5554F" stroke-width="1.68743" stroke-linecap="round" stroke-linejoin="round"/>
<path d="M10.7817 33.2067C11.8154 33.2067 12.6533 32.369 12.6533 31.3356C12.6533 30.3022 11.8154 29.4645 10.7817 29.4645C9.74809 29.4645 8.91016 30.3022 8.91016 31.3356C8.91016 32.369 9.74809 33.2067 10.7817 33.2067Z" fill="#F9C6C2"/>
<path d="M19.0708 33.2067C20.1044 33.2067 20.9424 32.369 20.9424 31.3356C20.9424 30.3022 20.1044 29.4645 19.0708 29.4645C18.0372 29.4645 17.1992 30.3022 17.1992 31.3356C17.1992 32.369 18.0372 33.2067 19.0708 33.2067Z" fill="#F9C6C2"/>
<path d="M27.356 33.2067C28.3896 33.2067 29.2275 32.369 29.2275 31.3356C29.2275 30.3022 28.3896 29.4645 27.356 29.4645C26.3223 29.4645 25.4844 30.3022 25.4844 31.3356C25.4844 32.369 26.3223 33.2067 27.356 33.2067Z" fill="#F9C6C2"/>
<path d="M4.63672 44.8052C11.1249 44.8052 11.1249 48.9632 17.6026 48.9632C24.0804 48.9632 24.0908 44.8052 30.5685 44.8052C37.0463 44.8052 37.0567 48.9632 43.5345 48.9632C50.0122 48.9632 50.0226 44.8052 56.5108 44.8052C62.9989 44.8052 62.9989 48.9632 69.4767 48.9632C75.9544 48.9632 75.9648 44.8052 82.453 44.8052C88.9411 44.8052 88.9411 48.9632 95.4293 48.9632" stroke="#E5554F" stroke-width="1.68743" stroke-linecap="round" stroke-linejoin="round"/>
</g>
<defs>
<clipPath id="clip0_2956_22152">
<rect width="97" height="50" fill="white"/>
</clipPath>
</defs>
</svg>
