<svg width="51" height="50" viewBox="0 0 51 50" fill="none" xmlns="http://www.w3.org/2000/svg">
<g id="Layer_1" clip-path="url(#clip0_2834_19266)">
<path id="Vector" d="M24.9406 48.5467C22.9982 48.5489 21.0691 48.221 19.2374 47.5776C18.7708 47.4136 18.5269 46.904 18.6914 46.4389C18.8559 45.9739 19.3672 45.7308 19.8338 45.8947C27.8331 48.7006 36.5999 44.5119 39.4152 36.5382C39.9903 34.91 40.2846 33.1959 40.2857 31.4696C40.2857 23.981 28.0613 6.69098 24.9417 2.40081C21.8222 6.69098 9.59889 23.981 9.59889 31.4696C9.59889 31.9625 9.19831 32.3618 8.70374 32.3618C8.20917 32.3618 7.80859 31.9625 7.80859 31.4696C7.80636 22.3395 23.5531 1.25103 24.2234 0.357758C24.5199 -0.0370224 25.0805 -0.117317 25.4766 0.178211C25.5449 0.22951 25.6064 0.289731 25.6567 0.357758C26.3281 1.24992 42.0738 22.3406 42.0738 31.4707C42.0626 40.8975 34.3979 48.5366 24.9395 48.5467H24.9406Z" fill="#E5554F"/>
<path id="Vector_2" d="M12.6001 49.9999C12.1682 49.9999 11.7979 49.6921 11.7195 49.2684C11.7095 49.2137 10.5928 43.6176 5.00928 40.8899C4.56506 40.6724 4.38156 40.1382 4.59975 39.6955C4.68703 39.5182 4.83137 39.3743 5.00928 39.2873C10.623 36.5439 11.7095 30.9646 11.7195 30.9088C11.7979 30.485 12.1682 30.1772 12.6001 30.1772C13.0321 30.1772 13.4024 30.485 13.4807 30.9088C13.4908 30.9635 14.6075 36.5595 20.191 39.2873C20.6352 39.5048 20.8187 40.039 20.6005 40.4817C20.5133 40.659 20.3689 40.8029 20.191 40.8899C14.5773 43.6333 13.4908 49.2126 13.4807 49.2684C13.4024 49.6921 13.0321 49.9999 12.6001 49.9999Z" fill="#F9C6C2"/>
<path id="Vector_3" d="M45.5969 25.1331C45.165 25.1331 44.7946 24.8253 44.7163 24.4015C44.187 22.2202 42.7145 20.3845 40.6948 19.392C40.2506 19.1746 40.0671 18.6404 40.2853 18.1976C40.3726 18.0203 40.5169 17.8765 40.6948 17.7895C42.7089 16.7903 44.1803 14.958 44.7163 12.78C44.8058 12.2949 45.2713 11.9748 45.758 12.0629C46.1239 12.1298 46.4104 12.4153 46.4775 12.78C47.0067 14.9613 48.4804 16.7969 50.4989 17.7895C50.9432 18.0069 51.1267 18.5411 50.9085 18.9839C50.8212 19.1612 50.6769 19.305 50.4989 19.392C48.4849 20.3912 47.0135 22.2235 46.4775 24.4015C46.3992 24.8253 46.0288 25.1331 45.5969 25.1331Z" fill="#F9C6C2"/>
<path id="Vector_4" d="M5.40353 13.8316H5.40017C4.96938 13.8316 4.60125 13.5239 4.52292 13.1023C3.99367 10.921 2.52003 9.08647 0.501466 8.09394C0.0572485 7.87648 -0.126257 7.3423 0.0919355 6.89956C0.179213 6.72225 0.323555 6.57839 0.501466 6.4914C2.52227 5.49776 3.9959 3.66102 4.52404 1.47746C4.60461 1.05591 4.97386 0.751465 5.40465 0.751465H5.408C5.83879 0.75258 6.20692 1.05926 6.28525 1.48081C6.81339 3.66214 8.28591 5.49664 10.3056 6.49028C10.7498 6.70775 10.9333 7.24193 10.7151 7.68466C10.6278 7.86198 10.4835 8.00584 10.3056 8.09283C8.28591 9.08647 6.81227 10.9232 6.28413 13.1057C6.20357 13.5261 5.83432 13.8305 5.40465 13.8316H5.40353Z" fill="#F9C6C2"/>
</g>
<defs>
<clipPath id="clip0_2834_19266">
<rect width="51" height="50" fill="white"/>
</clipPath>
</defs>
</svg>
