<?xml version="1.0" encoding="UTF-8"?>
<svg id="Layer_1" xmlns="http://www.w3.org/2000/svg" xmlns:xlink="http://www.w3.org/1999/xlink" version="1.1" viewBox="0 0 104 71">
  <!-- Generator: Adobe Illustrator 29.5.1, SVG Export Plug-In . SVG Version: 2.1.0 Build 141)  -->
  <defs>
    <style>
      .st0, .st1 {
        fill: none;
      }

      .st1 {
        stroke: #e5554f;
        stroke-linecap: round;
        stroke-linejoin: round;
        stroke-width: 2px;
      }

      .st2 {
        fill: #f9c6c2;
      }

      .st3 {
        clip-path: url(#clippath);
      }
    </style>
    <clipPath id="clippath">
      <rect class="st0" x="39.2" y="1.3" width="25.7" height="68.5"/>
    </clipPath>
  </defs>
  <g class="st3">
    <g>
      <path class="st2" d="M40.1,21.9v39.1h23.9V21.9h-23.9ZM46.9,51.1l1.4-3.3,2.8-6.6h-4.6l9.6-14.1-4.1,10.6h5.5l-10.7,13.3h0Z"/>
      <path class="st1" d="M46,2.2h12c.9,0,1.7.8,1.7,1.7v4.6h-15.4V3.9c0-1,.8-1.7,1.7-1.7h0Z"/>
      <path class="st1" d="M63.9,65.9V19.9c0-5.7-5.4-8.6-5.4-8.6v-2.8h-13v2.8s-5.4,2.9-5.4,8.6v46s-.1,2.9,2.7,2.9h18.5c2.9,0,2.7-2.9,2.7-2.9h0Z"/>
    </g>
  </g>
</svg>