<svg width="51" height="50" viewBox="0 0 51 50" fill="none" xmlns="http://www.w3.org/2000/svg">
<path fill-rule="evenodd" clip-rule="evenodd" d="M41.729 12.8735C40.5973 9.00889 36.6095 -0.00790313 24.0576 5.19874e-06C18.3794 0.00308271 13.3867 3 9.4423 7.81786C3.7135 14.8147 0.202645 25.6833 0.00259174 36.3469C-0.0390971 38.5622 0.411739 42.4836 2.11238 44.7382C3.73657 46.8914 6.91908 47.8028 9.06027 48.355C19.2933 50.9925 30.6012 50.461 38.8023 46.7417C44.4493 44.181 48.6363 40.1159 50.1474 34.5883C51.4177 29.9431 51.1397 26.2226 50.1563 23.2897C48.5521 18.5071 45.0428 15.7931 43.0139 14.5664C45.9408 12.2622 48.4908 9.81186 48.4532 4.50519C48.4484 3.91394 47.9705 3.43764 47.3844 3.44164C46.7998 3.44584 46.328 3.92998 46.3321 4.52037C46.3645 8.94006 44.1826 10.9685 41.729 12.8735ZM48.4666 32.5015C48.3657 32.995 48.2452 33.4996 48.1032 34.0181C46.7575 38.9433 42.9652 42.5068 37.9337 44.7879C30.1177 48.3321 19.3372 48.7943 9.58395 46.2804C7.82306 45.826 5.13621 45.213 3.79921 43.4405C2.37419 41.5513 2.0878 38.2437 2.12219 36.388C2.3128 26.2243 5.61739 15.851 11.0768 9.18252C14.5907 4.88959 18.9998 2.14379 24.059 2.14175C24.5213 2.14147 24.9712 2.15477 25.408 2.18081C26.3275 2.87329 29.6469 5.46282 31.6634 8.23501C29.5347 8.57769 25.8651 9.49073 22.8165 11.8898C22.5629 12.089 22.4125 12.3931 22.4083 12.718C22.4035 13.0421 22.5445 13.3509 22.7914 13.5581C22.7914 13.5581 26.0477 16.2849 29.6878 17.9036C31.3807 18.6566 33.1533 19.1424 34.7612 19.1007C34.4692 20.1006 34.3694 21.23 34.4223 22.4115C34.6298 27.0706 37.1227 32.5613 37.1227 32.5613C37.2568 32.8539 37.5137 33.0708 37.8239 33.1498C38.1339 33.2304 38.4627 33.1645 38.7185 32.9718C41.8185 30.6408 43.6648 27.3105 44.5579 25.3298C46.4059 27.6932 47.856 30.9939 48.4666 32.5015ZM9.77296 40.3377C10.1276 40.8078 9.80312 41.6605 9.04995 42.2399C8.29593 42.82 7.39579 42.9094 7.04114 42.4393C6.68649 41.9691 7.01098 41.1164 7.76499 40.5364C8.51816 39.957 9.41831 39.8675 9.77296 40.3377ZM7.26756 34.189C7.73776 34.542 7.66387 35.4441 7.10542 36.2022C6.54612 36.9609 5.71071 37.2899 5.242 36.9371C4.7718 36.5841 4.84569 35.6819 5.40414 34.9239C5.96344 34.1652 6.79885 33.8362 7.26756 34.189ZM15.2755 39.9462C15.8485 40.068 16.1553 40.9182 15.9626 41.8431C15.7691 42.7686 15.1477 43.4203 14.5746 43.2985C14.0025 43.176 13.6948 42.3264 13.8875 41.4016C14.0811 40.476 14.7033 39.8237 15.2755 39.9462ZM9.5543 27.7389C9.74019 28.2999 9.17004 28.9983 8.28248 29.2988C7.39427 29.5985 6.52307 29.387 6.33698 28.8276C6.15109 28.2666 6.72124 27.5682 7.6088 27.2677C8.497 26.968 9.36905 27.1788 9.5543 27.7389ZM13.8499 32.4902C14.2046 32.9604 13.8801 33.8131 13.1269 34.3925C12.3729 34.9725 11.4727 35.062 11.1181 34.5918C10.7634 34.1216 11.0879 33.269 11.8419 32.6889C12.5951 32.1095 13.4953 32.0201 13.8499 32.4902ZM23.1193 42.7418C23.3061 43.3021 22.7359 44.0005 21.8484 44.301C20.9602 44.6007 20.0881 44.3899 19.9029 43.8298C19.7161 43.2695 20.2863 42.5711 21.1747 42.2699C22.0622 41.9694 22.9335 42.1808 23.1193 42.7418ZM19.2071 35.6361C19.5617 36.1063 19.2448 36.9531 18.5001 37.526C17.7553 38.099 16.8628 38.1826 16.5081 37.7124C16.1535 37.2422 16.4704 36.3954 17.2151 35.8225C17.9598 35.2496 18.8524 35.166 19.2071 35.6361ZM11.4326 20.8022C11.9818 21.0056 12.1665 21.8918 11.8434 22.7798C11.5211 23.6671 10.812 24.222 10.2636 24.018C9.71437 23.8146 9.52967 22.9284 9.85264 22.0419C10.1758 21.1539 10.8834 20.5988 11.4326 20.8022ZM18.5892 28.1713C18.9438 28.6415 18.6269 29.4883 17.8822 30.0612C17.1374 30.6342 16.2449 30.7178 15.8902 30.2476C15.5356 29.7774 15.8525 28.9306 16.5972 28.3577C17.342 27.7848 18.2345 27.7012 18.5892 28.1713ZM26.6567 36.7712C27.0114 37.2414 26.6945 38.0882 25.9497 38.6611C25.205 39.234 24.3124 39.3176 23.9578 38.8475C23.6031 38.3773 23.92 37.5305 24.6648 36.9576C25.4095 36.3847 26.3021 36.301 26.6567 36.7712ZM32.2559 39.245C32.8058 39.4492 32.9899 40.3346 32.6667 41.2226C32.3444 42.1099 31.6369 42.665 31.0876 42.4616C30.5377 42.2574 30.3537 41.372 30.6768 40.484C30.9991 39.5967 31.7075 39.041 32.2559 39.245ZM14.1423 13.8827C14.6288 14.2097 14.6037 15.1147 14.0845 15.9018C13.5659 16.6897 12.7497 17.0619 12.2624 16.7356C11.7752 16.4077 11.8003 15.5028 12.3195 14.7157C12.8387 13.9286 13.6551 13.5549 14.1423 13.8827ZM25.4993 28.0752C25.854 28.5454 25.5371 29.3922 24.7924 29.9651C24.0476 30.538 23.1551 30.6217 22.8004 30.1515C22.4458 29.6813 22.7627 28.8345 23.5074 28.2616C24.2521 27.6887 25.1447 27.605 25.4993 28.0752ZM22.0781 22.444C22.0732 23.0347 21.3092 23.5079 20.3729 23.5C19.4367 23.4921 18.6809 23.0061 18.6858 22.4154C18.6908 21.8247 19.4547 21.3515 20.3903 21.3585C21.3266 21.3665 22.0831 21.8533 22.0781 22.444ZM32.9983 32.4809C33.3529 32.9511 33.036 33.7979 32.2913 34.3708C31.5466 34.9437 30.654 35.0273 30.2993 34.5572C29.9447 34.087 30.2616 33.2402 31.0063 32.6673C31.7511 32.0943 32.6436 32.0107 32.9983 32.4809ZM20.4642 15.7225C20.5842 16.3005 19.9374 16.9273 19.0209 17.1222C18.1045 17.3157 17.2635 17.0029 17.1435 16.425C17.0234 15.847 17.6696 15.2194 18.5859 15.0259C19.5031 14.8318 20.3441 15.1446 20.4642 15.7225ZM18.0559 8.5717C18.3679 9.07196 17.9789 9.88676 17.1872 10.3921C16.3964 10.8969 15.5001 10.9013 15.1872 10.4017C14.8743 9.90208 15.2642 9.08664 16.055 8.58189C16.8467 8.0765 17.743 8.07208 18.0559 8.5717ZM30.8385 21.44C31.1932 21.9102 30.8763 22.757 30.1315 23.3299C29.3868 23.9028 28.4943 23.9864 28.1396 23.5163C27.785 23.0461 28.1019 22.1993 28.8466 21.6264C29.5913 21.0534 30.4839 20.9698 30.8385 21.44ZM43.0923 36.1056C43.4469 36.5758 43.13 37.4226 42.3853 37.9955C41.6405 38.5684 40.748 38.6521 40.3933 38.1819C40.0387 37.7117 40.3556 36.8649 41.1003 36.292C41.8451 35.7191 42.7376 35.6354 43.0923 36.1056ZM48.8751 28.3322C47.8494 26.3256 46.4777 24.0495 44.941 22.5652C44.677 22.3107 44.3 22.2103 43.9457 22.3025C43.5908 22.3938 43.308 22.6639 43.1974 23.0155C43.1974 23.0155 41.8672 27.2598 38.5103 30.3686C37.9571 28.9514 37.1225 26.5568 36.7355 24.1424C36.3729 21.8841 36.3183 19.5853 37.5703 18.2642C37.9307 17.8833 37.9634 17.2941 37.6473 16.875C37.3312 16.456 36.7601 16.3313 36.3007 16.5811C34.707 17.4491 32.5597 16.8411 30.5419 15.9436C28.4198 14.9998 26.4385 13.6489 25.2588 12.7757C29.1148 10.341 33.5101 10.1726 33.5101 10.1726C33.8758 10.1592 34.2087 9.95556 34.3901 9.63424C34.5716 9.31293 34.5765 8.92012 34.403 8.59463C33.3229 6.57068 31.3245 4.48858 29.5958 2.9124C38.6539 5.67443 40.0375 14.9124 40.0375 14.9124C40.0924 15.2874 40.3395 15.6062 40.6875 15.7477C40.6875 15.7477 46.1412 17.9915 48.1473 23.9765C48.576 25.2552 48.8452 26.7023 48.8751 28.3322ZM24.6996 5.86062C24.7233 6.45215 23.9832 6.96229 23.0477 6.99956C22.112 7.03832 21.3338 6.58976 21.3099 5.99974C21.2862 5.40821 22.0263 4.89807 22.9619 4.86081C23.8976 4.82204 24.6758 5.27059 24.6996 5.86062Z" fill="#E5554F"/>
</svg>
