<svg width="51" height="51" viewBox="0 0 51 51" fill="none" xmlns="http://www.w3.org/2000/svg">
<g id="Group 521">
<path id="Vector" d="M12.3347 48.4038C12.3347 48.4038 10.6019 34.8209 21.5389 24.2191C32.4758 13.6173 49.2446 15.5365 49.2446 15.5365C49.2446 15.5365 50.1575 29.4361 38.3449 40.8764C26.5322 52.3166 12.3533 48.3852 12.3533 48.3852L12.3347 48.4038Z" stroke="#E5554F" stroke-width="2" stroke-linecap="round" stroke-linejoin="round"/>
<g id="Group" opacity="0.35">
<path id="Vector_2" d="M12.1481 49.8509C11.8686 49.7764 11.645 49.5342 11.6078 49.2361C11.5332 48.6585 10.229 35.56 20.2716 23.8403C21.2777 22.6665 23.0105 20.9337 24.4638 19.9648C22.582 6.81039 14.8125 0.531311 14.4026 0.177297C14.1417 -0.0462899 13.7504 -0.0649222 13.471 0.158665C12.912 0.587207 -0.0371836 10.7045 8.02699e-05 25.8898C0.0559761 41.0751 11.0488 49.4969 11.5146 49.8509C11.645 49.9441 11.7941 50 11.9618 50C12.0736 50 12.204 49.9627 12.3158 49.9068C12.204 49.8882 12.1295 49.8696 12.1295 49.8696L12.1481 49.8509Z" fill="#EF5B51"/>
</g>
</g>
</svg>
