<svg width="41" height="50" viewBox="0 0 41 50" fill="none" xmlns="http://www.w3.org/2000/svg">
<g clip-path="url(#clip0_3222_19807)">
<path d="M13.9118 39.7851C14.3162 39.7851 14.644 39.4572 14.644 39.0527C14.644 38.6482 14.3162 38.3203 13.9118 38.3203C13.5075 38.3203 13.1797 38.6482 13.1797 39.0527C13.1797 39.4572 13.5075 39.7851 13.9118 39.7851Z" fill="#E5554F"/>
<path d="M9.52121 44.1836C9.92556 44.1836 10.2533 43.8557 10.2533 43.4512C10.2533 43.0467 9.92556 42.7188 9.52121 42.7188C9.11685 42.7188 8.78906 43.0467 8.78906 43.4512C8.78906 43.8557 9.11685 44.1836 9.52121 44.1836Z" fill="#E5554F"/>
<path d="M10.9821 47.1133C11.3865 47.1133 11.7143 46.7854 11.7143 46.3809C11.7143 45.9764 11.3865 45.6484 10.9821 45.6484C10.5778 45.6484 10.25 45.9764 10.25 46.3809C10.25 46.7854 10.5778 47.1133 10.9821 47.1133Z" fill="#E5554F"/>
<path d="M36.6071 11.7722V10.1198C37.4293 9.82393 38.026 9.06954 38.0691 8.16207C38.0977 7.55489 37.8832 6.97921 37.4644 6.53976C37.225 6.28854 36.9299 6.10031 36.6071 5.98532V0.732418C36.6071 0.328123 36.2791 0 35.8749 0H18.3035C17.8993 0 17.5713 0.328123 17.5713 0.732418V5.98605C17.2485 6.10031 16.9534 6.28928 16.714 6.5405C16.2952 6.97921 16.0807 7.55563 16.1093 8.16207C16.1517 9.0688 16.7492 9.82393 17.5713 10.1198V11.7722C15.0908 12.1288 13.1785 14.2675 13.1785 16.8456V31.7291C13.1785 32.1334 13.5065 32.4615 13.9106 32.4615C14.3148 32.4615 14.6428 32.1334 14.6428 31.7291V16.8456C14.6428 14.8263 16.285 13.1835 18.3035 13.1835H35.8749C37.8934 13.1835 39.5356 14.8263 39.5356 16.8456V46.3379C39.5356 47.5493 38.5502 48.5352 37.3392 48.5352H27.4728L19.3285 36.7667C18.0978 34.9884 16.0727 33.9271 13.9106 33.9271C11.7486 33.9271 9.72351 34.9884 8.49278 36.7667L0.13024 48.8501C-0.024974 49.0742 -0.0425455 49.3657 0.0833831 49.6067C0.210044 49.8477 0.459705 49.9993 0.732062 49.9993H27.0797C27.0797 49.9993 27.0863 49.9993 27.0899 49.9993C27.0936 49.9993 27.0965 49.9993 27.1002 49.9993H37.3399C39.3585 49.9993 41.0007 48.3565 41.0007 46.3372V16.8456C41.0007 14.2675 39.0883 12.1281 36.6078 11.7722H36.6071ZM35.1428 10.2539V11.7187H19.0356V10.2539H35.1428ZM30.7499 5.85935V1.46484H32.2142V5.85935H30.7499ZM27.8213 5.85935V1.46484H29.2856V5.85935H27.8213ZM24.8928 5.85935V1.46484H26.3571V5.85935H24.8928ZM21.9642 5.85935V1.46484H23.4285V5.85935H21.9642ZM33.6785 1.46484H35.1428V5.85935H33.6785V1.46484ZM19.0356 1.46484H20.4999V5.85935H19.0356V1.46484ZM17.7734 7.55123C17.9133 7.40475 18.1014 7.32418 18.3035 7.32418H35.8749C36.077 7.32418 36.2652 7.40475 36.405 7.55123C36.5441 7.69772 36.6158 7.88961 36.6063 8.09322C36.588 8.47701 36.2417 8.78902 35.8339 8.78902H18.3445C17.9367 8.78902 17.5904 8.47701 17.5721 8.09322C17.5626 7.89034 17.6343 7.69772 17.7734 7.55123ZM2.12972 48.5352L9.69715 37.6002C10.6687 36.1961 12.2047 35.3912 13.9106 35.3912C15.6165 35.3912 17.1533 36.1961 18.1241 37.6002L25.6915 48.5352H2.12972Z" fill="#E5554F"/>
<path d="M25.2322 34.0522C24.0959 34.0522 23.3293 33.8478 23.2532 33.8266C23.0336 33.7658 22.8718 33.5783 22.8425 33.352C22.819 33.1718 22.3168 28.9011 25.8098 25.5158C29.2919 22.1416 34.477 22.696 34.6944 22.7195C34.9668 22.751 35.1769 22.9721 35.1952 23.2461C35.2076 23.4292 35.4463 27.7783 31.7065 31.4023C29.442 33.5973 26.9264 34.0514 25.2315 34.0514L25.2322 34.0522ZM23.9436 32.8151C25.0308 33.0019 28.1776 33.245 30.9195 30.5878C33.5706 28.0192 33.9974 24.9892 34.0589 23.8166C32.7366 23.7778 29.0986 23.9096 26.5998 26.3303C24.0893 28.7626 23.9173 31.756 23.9443 32.8151H23.9436Z" fill="#E5554F"/>
<g opacity="0.35">
<path d="M23.3441 33.7237C23.257 33.6995 23.1925 33.6263 23.1808 33.5362C23.1581 33.3633 22.7606 29.3746 25.8151 25.8084C26.1211 25.451 26.6461 24.9229 27.089 24.6307C26.5179 20.6266 24.156 18.712 24.033 18.608C23.9525 18.5392 23.8354 18.537 23.7512 18.6014C23.5835 18.7303 19.6416 21.8116 19.6563 26.4317C19.6709 31.0533 23.0154 33.6138 23.1574 33.7207C23.1977 33.7508 23.2453 33.7662 23.2928 33.7654C23.3295 33.7654 23.3661 33.7566 23.399 33.7383C23.399 33.7383 23.4012 33.7376 23.4012 33.7369C23.369 33.7295 23.3463 33.7237 23.3441 33.7229V33.7237Z" fill="#EF5B51"/>
</g>
</g>
<defs>
<clipPath id="clip0_3222_19807">
<rect width="41" height="50" fill="white"/>
</clipPath>
</defs>
</svg>
