<svg width="36" height="50" viewBox="0 0 36 50" fill="none" xmlns="http://www.w3.org/2000/svg">
<g clip-path="url(#clip0_3222_19835)">
<path d="M24.3962 10.9032C20.4754 5.07792 18.0068 1.3125 18.0068 1.3125C18.0068 1.3125 15.3797 5.20912 11.3797 11.1131C7.04968 17.5156 1.32031 25.44 1.32031 32.1049C1.32031 41.2626 8.79226 48.6885 18.0068 48.6885C27.2213 48.6885 34.6932 41.2626 34.6932 32.1049C34.6932 26.3715 28.8055 17.4369 24.4094 10.9032H24.3962Z" stroke="#E5554F" stroke-width="2" stroke-linecap="round" stroke-linejoin="round"/>
<path d="M15.3393 41.7429C13.9664 41.7429 13.0291 41.4936 12.9367 41.4674C12.6727 41.3886 12.4747 41.1656 12.4351 40.8901C12.4087 40.6671 11.8014 35.524 16.039 31.4438C20.2634 27.3766 26.5605 28.0457 26.8245 28.0719C27.1545 28.1113 27.4054 28.3737 27.4318 28.7017C27.445 28.9247 27.7354 34.1596 23.1941 38.5416C20.4483 41.1918 17.3988 41.7298 15.3393 41.7298V41.7429ZM13.7684 40.2603C15.0885 40.4834 18.9037 40.772 22.2304 37.5708C25.4516 34.4745 25.9664 30.814 26.0456 29.4102C24.4351 29.3577 20.0258 29.5282 16.9895 32.4409C13.94 35.3797 13.7288 38.9877 13.7684 40.2603Z" fill="#E5554F"/>
<g opacity="0.35">
<path d="M13.0457 41.3526C12.9401 41.3264 12.8608 41.2345 12.8476 41.1296C12.8212 40.9197 12.3328 36.1178 16.0424 31.8144C16.412 31.3815 17.0457 30.7517 17.5869 30.3975C16.9005 25.5694 14.0226 23.2603 13.8774 23.1422C13.7849 23.0635 13.6397 23.0503 13.5341 23.1422C13.3361 23.2996 8.54402 27.0126 8.57042 32.5885C8.58362 38.1645 12.6496 41.2477 12.8212 41.3789C12.8741 41.4182 12.9269 41.4313 12.9797 41.4313C13.0193 41.4313 13.0721 41.4313 13.1117 41.4051C13.0721 41.4051 13.0457 41.392 13.0457 41.392V41.3526Z" fill="#EF5B51"/>
</g>
</g>
<defs>
<clipPath id="clip0_3222_19835">
<rect width="36" height="50" fill="white"/>
</clipPath>
</defs>
</svg>
