<?xml version="1.0" encoding="UTF-8"?>
<svg id="Layer_1" xmlns="http://www.w3.org/2000/svg" xmlns:xlink="http://www.w3.org/1999/xlink" version="1.1" viewBox="0 0 104 71">
  <!-- Generator: Adobe Illustrator 29.5.1, SVG Export Plug-In . SVG Version: 2.1.0 Build 141)  -->
  <defs>
    <style>
      .st0, .st1 {
        fill: none;
      }

      .st1 {
        stroke: #ef5b51;
        stroke-linecap: round;
        stroke-linejoin: round;
        stroke-width: 1.1px;
      }

      .st2 {
        fill: #f9c6c2;
      }

      .st3 {
        clip-path: url(#clippath);
      }
    </style>
    <clipPath id="clippath">
      <rect class="st0" x="11.1" y="13.6" width="81.1" height="44.8"/>
    </clipPath>
  </defs>
  <g class="st3">
    <g>
      <path class="st2" d="M86.9,42.6h2.4v2.9h-2.4c-.6,0-1.1-.5-1.1-1.1v-.7c0-.6.5-1.1,1.1-1.1h0Z"/>
      <path class="st1" d="M13.6,47.5V14.5h51.1v32.8"/>
      <path class="st1" d="M89.7,47.6v-4.8c0-2.1-1.1-4.1-3-5.2l-3.9-2.3-3.1-7.4c-.8-1.8-2.6-3-4.6-3h-10.5v22.7"/>
      <path class="st2" d="M67.6,27.8h5.8c1.9,0,3.5,1.1,4.2,2.8l2,4.6h-12v-7.5Z"/>
      <path class="st1" d="M68.3,38.6h3.2"/>
      <path class="st1" d="M71.8,47.7h-12.9"/>
      <path class="st1" d="M81.5,52.5h9.9v-4.8h-11.7"/>
      <path class="st1" d="M60.8,52.5h9.3"/>
      <path class="st1" d="M28.9,52.5h20.3"/>
      <path class="st1" d="M19.2,47.7h-7.3v4.8h5.6"/>
      <path class="st1" d="M51.1,47.7h-24.1"/>
      <path class="st1" d="M23.2,57.6c3.1,0,5.7-2.5,5.7-5.7s-2.5-5.7-5.7-5.7-5.7,2.5-5.7,5.7,2.5,5.7,5.7,5.7Z"/>
      <path class="st2" d="M23.2,55.6c2,0,3.7-1.7,3.7-3.7s-1.7-3.7-3.7-3.7-3.7,1.7-3.7,3.7,1.7,3.7,3.7,3.7Z"/>
      <path class="st1" d="M55,57.6c3.1,0,5.7-2.5,5.7-5.7s-2.5-5.7-5.7-5.7-5.7,2.5-5.7,5.7,2.5,5.7,5.7,5.7Z"/>
      <path class="st2" d="M55,55.6c2,0,3.7-1.7,3.7-3.7s-1.7-3.7-3.7-3.7-3.7,1.7-3.7,3.7,1.7,3.7,3.7,3.7Z"/>
      <path class="st1" d="M75.8,57.6c3.1,0,5.7-2.5,5.7-5.7s-2.5-5.7-5.7-5.7-5.7,2.5-5.7,5.7,2.5,5.7,5.7,5.7Z"/>
      <path class="st2" d="M75.8,55.6c2,0,3.7-1.7,3.7-3.7s-1.7-3.7-3.7-3.7-3.7,1.7-3.7,3.7,1.7,3.7,3.7,3.7Z"/>
    </g>
  </g>
</svg>