<svg width="68" height="50" viewBox="0 0 68 50" fill="none" xmlns="http://www.w3.org/2000/svg">
<g clip-path="url(#clip0_2956_22129)">
<path d="M18.4412 37.4739L19.2407 26.6466H2.16406L3.04355 37.4739H18.4412Z" fill="#F9C6C2"/>
<path d="M65.0806 37.4739L65.8802 26.6466H48.7969L49.6897 37.4739H65.0806Z" fill="#F9C6C2"/>
<path d="M42.8608 15.087H25.1445V43.6134H42.8608V15.087Z" fill="#F9C6C2"/>
<path d="M42.8562 47.1948V13.6C42.8562 9.46351 38.8385 7.35168 38.8385 7.35168V5.3136H29.1709V7.35168C29.1709 7.35168 25.1532 9.46351 25.1532 13.6V47.1948C25.1532 47.1948 25.0466 49.3267 27.1587 49.3267H40.8507C42.9694 49.3267 42.8562 47.1948 42.8562 47.1948Z" stroke="#E5554F" stroke-width="1.40976" stroke-linecap="round" stroke-linejoin="round"/>
<path d="M29.5343 0.667847H38.4557C39.1553 0.667847 39.7216 1.2377 39.7216 1.94165V5.31386H28.2617V1.94165C28.2617 1.2377 28.8281 0.667847 29.5276 0.667847H29.5343Z" stroke="#E5554F" stroke-width="1.40976" stroke-linecap="round" stroke-linejoin="round"/>
<path d="M20.0874 20.5814L17.9487 49.2821L3.61712 49.3291L1.28516 20.6418" stroke="#E5554F" stroke-width="1.40976" stroke-linecap="round" stroke-linejoin="round"/>
<path d="M8.89595 18.4867L7.41016 5.31291L10.0952 5.00452L11.621 18.5872" stroke="#E5554F" stroke-width="1.40976" stroke-linecap="round" stroke-linejoin="round"/>
<path d="M12.0413 18.5858H0.667969V20.577H12.0346H12.0413H20.7028V18.5858H12.0413Z" stroke="#E5554F" stroke-width="1.40976" stroke-linecap="round" stroke-linejoin="round"/>
<path d="M66.7202 20.5814L64.5815 49.2821L50.2499 49.3291L47.918 20.6418" stroke="#E5554F" stroke-width="1.40976" stroke-linecap="round" stroke-linejoin="round"/>
<path d="M60.8037 9.79245C64.275 11.1869 66.7202 14.5927 66.7202 18.5817H47.918C47.918 14.1904 50.8962 10.4964 54.9272 9.43042" stroke="#E5554F" stroke-width="1.40976" stroke-linecap="round" stroke-linejoin="round"/>
<path d="M58.652 18.4059L59.7713 3.60969L57.0796 3.40186L55.9336 18.5802" stroke="#E5554F" stroke-width="1.40976" stroke-linecap="round" stroke-linejoin="round"/>
<path d="M58.6741 18.5858H47.3008V20.577H58.6741H67.3357V18.5858H58.6741Z" stroke="#E5554F" stroke-width="1.40976" stroke-linecap="round" stroke-linejoin="round"/>
</g>
<defs>
<clipPath id="clip0_2956_22129">
<rect width="68" height="50" fill="white"/>
</clipPath>
</defs>
</svg>
