<?xml version="1.0" encoding="UTF-8"?>
<svg id="Layer_1" xmlns="http://www.w3.org/2000/svg" xmlns:xlink="http://www.w3.org/1999/xlink" version="1.1" viewBox="0 0 104 71">
  <!-- Generator: Adobe Illustrator 29.5.1, SVG Export Plug-In . SVG Version: 2.1.0 Build 141)  -->
  <defs>
    <style>
      .st0, .st1 {
        fill: none;
      }

      .st1 {
        stroke: #e45550;
        stroke-linecap: round;
        stroke-linejoin: round;
        stroke-width: 2px;
      }

      .st2 {
        fill: #fac7c3;
      }

      .st3 {
        clip-path: url(#clippath);
      }
    </style>
    <clipPath id="clippath">
      <rect class="st0" x="38.7" width="27.4" height="71"/>
    </clipPath>
  </defs>
  <g class="st3">
    <g>
      <path class="st2" d="M39.8,21.5v40.3h25.2V21.5h-25.2ZM52.4,50.1c-3.3,0-5.9-2.6-5.9-5.9s2-5.2,3.6-7.5c1.4-2.1,2.3-3.5,2.3-3.5,0,0,.9,1.3,2.3,3.4,1.6,2.3,3.6,5.5,3.6,7.5,0,3.3-2.6,5.9-5.9,5.9Z"/>
      <path class="st1" d="M65,66.9V19.4c0-5.8-5.7-8.8-5.7-8.8v-2.9h-13.8v2.9s-5.7,3-5.7,8.8v47.5s-.2,3,2.9,3h19.5c3,0,2.9-3,2.9-3h0Z"/>
      <path class="st1" d="M46.3,1.1h12.1c1.2,0,2.1.9,2.1,2.1v4.5h-16.3V3.2c0-1.2.9-2.1,2.1-2.1Z"/>
    </g>
  </g>
</svg>